# xmcd CD database file
#
# Track frame offsets:
#	150
#	19785
#	39170
#	57349
#
# Disc length: 1066 seconds
#
# Revision: 0
# Processed by: cddbd v1.5.1PL0 Copyright (c) Steve Scherf et al.
# Submitted via: CDex 1.51
#
DISCID=27042804
DTITLE=小林克也＆ザ・ナンバーワン・バンド - バナナ・ドリーム
DYEAR=1900
DGENRE=Japan Rock
TTITLE0=うわさのカム・トゥ・ハワイ
TTITLE1=ナミマニ
TTITLE2=サマータイム
TTITLE3=美しき日本
EXTD=
EXTT0=
EXTT1=
EXTT2=
EXTT3=
PLAYORDER=
